<svg width="142" height="142" viewBox="0 0 142 142" fill="none" xmlns="http://www.w3.org/2000/svg">
<path d="M70.641 138.887C108.332 138.887 138.887 108.332 138.887 70.641C138.887 32.9498 108.332 2.39502 70.641 2.39502C32.9498 2.39502 2.39502 32.9498 2.39502 70.641C2.39502 108.332 32.9498 138.887 70.641 138.887Z" fill="#141418" stroke="black" stroke-width="4.79" stroke-miterlimit="1.5" stroke-linecap="round" stroke-linejoin="round"/>
<path fill-rule="evenodd" clip-rule="evenodd" d="M46.6019 57.5843C53.4359 105.911 122.058 105.857 127.936 55.2913C128.286 52.2793 129.132 47.9713 126.738 47.8903C125.267 47.8403 47.8389 47.8663 47.6399 47.8913C45.6569 48.1403 46.1369 52.6003 46.6019 57.5843Z" fill="white" stroke="black" stroke-width="2.08" stroke-miterlimit="2" stroke-linejoin="round"/>
<path fill-rule="evenodd" clip-rule="evenodd" d="M38.6019 74.5965C38.4849 71.4185 38.6149 50.5305 38.5279 49.3555C38.4649 48.5025 38.225 46.1915 28.056 49.4195C20.12 51.9385 12.8099 59.9385 12.9119 70.1445C13.0789 86.9125 30.1969 93.2805 37.4629 92.2415C39.4599 91.9555 38.2919 84.8975 38.6019 74.5975V74.5965Z" fill="white" stroke="black" stroke-width="2.08" stroke-miterlimit="2" stroke-linejoin="round"/>
<path fill-rule="evenodd" clip-rule="evenodd" d="M57.5029 63.4944C60.3529 79.9434 80.6649 68.7084 72.9249 58.3734C68.2099 52.0784 58.1649 54.1324 57.5029 63.4944Z" fill="#E3A764"/>
</svg>
